<?xml version="1.0" standalone="no"?>
<!DOCTYPE svg PUBLIC "-//W3C//DTD SVG 20010904//EN"
 "http://www.w3.org/TR/2001/REC-SVG-20010904/DTD/svg10.dtd">
<svg version="1.0" xmlns="http://www.w3.org/2000/svg"
 width="300.000000pt" height="306.000000pt" viewBox="0 0 300.000000 306.000000"
 preserveAspectRatio="xMidYMid meet">
<metadata>
Created by potrace 1.10, written by Peter Selinger 2001-2011
</metadata>
<g transform="translate(0.000000,306.000000) scale(0.100000,-0.100000)"
fill="#000000" stroke="none">
<path d="M857 2959 c-19 -22 -32 -29 -46 -24 -44 14 -158 14 -177 0 -16 -11
-23 -11 -47 2 -18 9 -40 12 -60 7 -50 -10 -145 -62 -157 -84 -16 -30 -37 -24
-65 19 -39 63 -141 83 -184 37 -23 -24 -23 -27 -11 -113 6 -48 10 -153 8 -233
-3 -129 -5 -147 -24 -170 -16 -18 -24 -51 -34 -125 -10 -78 -18 -106 -36 -128
-41 -48 -25 -130 38 -202 42 -47 45 -57 24 -74 -8 -7 -17 -30 -21 -52 -6 -34
-3 -45 16 -65 12 -13 28 -24 35 -24 7 0 17 -7 22 -16 7 -12 17 -14 46 -9 38 8
38 20 1 27 -12 2 -19 10 -17 21 2 14 -2 17 -24 13 -15 -3 -35 -1 -46 5 -15 8
-16 14 -8 30 6 10 10 27 8 37 -2 13 3 16 25 14 25 -3 28 -1 22 19 -6 18 -4 21
9 16 13 -5 16 0 16 24 0 25 -4 30 -22 29 -45 -4 -58 0 -58 18 0 10 5 23 12 30
8 8 9 15 2 22 -8 8 -15 6 -24 -5 -23 -28 -39 -18 -33 20 4 26 2 36 -11 41 -21
8 -21 30 0 38 9 3 14 13 11 20 -6 15 12 26 44 26 25 0 24 26 -1 47 -20 17 -28
39 -11 28 16 -9 23 13 11 36 -9 16 -8 24 6 40 11 12 14 23 7 31 -16 23 -9 43
15 42 18 -1 21 3 17 17 -5 15 -3 17 11 12 13 -5 16 -3 11 10 -5 12 1 17 26 19
18 2 30 8 27 13 -3 6 -19 9 -35 7 l-30 -3 4 123 c2 68 8 131 13 141 7 14 5 24
-8 38 -15 16 -16 24 -7 38 9 15 9 23 -2 37 -19 26 -19 73 1 81 8 3 39 2 67 -3
46 -8 53 -12 61 -39 12 -39 70 -79 104 -70 19 5 21 9 12 20 -15 18 14 48 64
65 20 6 38 16 41 21 10 16 20 10 38 -21 10 -16 27 -35 38 -40 27 -15 25 4 -5
32 -29 29 -40 58 -22 58 8 0 16 -7 20 -15 3 -8 17 -20 31 -27 22 -10 28 -8 49
15 27 30 52 36 42 12 -9 -26 21 -28 54 -5 28 20 35 19 31 -3 -1 -5 4 -7 11 -5
15 5 49 -22 42 -34 -7 -12 15 -38 31 -38 17 0 7 40 -11 47 -8 3 -14 11 -14 19
0 16 26 19 35 4 3 -5 17 -10 31 -10 31 0 32 25 2 50 -31 25 -14 39 22 18 25
-14 30 -14 41 -2 8 10 15 11 24 4 7 -6 20 -8 28 -4 9 3 26 -3 38 -15 13 -12
17 -21 10 -21 -7 0 -9 -5 -6 -11 4 -5 12 -8 18 -6 7 2 19 -4 27 -13 23 -26 82
-43 92 -28 4 7 8 16 8 21 0 4 11 12 25 17 20 7 32 6 50 -6 26 -17 34 -7 13 15
-11 11 -9 12 11 6 13 -4 30 -8 37 -9 7 -1 17 -5 20 -9 4 -4 14 -7 22 -7 8 0
21 -8 28 -17 13 -16 15 -17 27 -2 24 31 56 41 113 33 30 -3 60 -2 67 3 19 14
147 4 147 -12 0 -7 -7 -32 -15 -55 -8 -24 -13 -52 -9 -62 3 -12 0 -18 -10 -18
-12 0 -16 -8 -14 -27 1 -16 -6 -41 -17 -56 -24 -37 -30 -110 -10 -127 16 -14
10 -34 -7 -24 -7 5 -8 2 -4 -5 5 -7 1 -18 -10 -26 -15 -10 -25 -10 -58 1 -25
9 -60 13 -93 9 -37 -3 -52 -1 -47 6 3 6 -2 28 -11 50 -14 29 -15 42 -7 52 14
17 -7 119 -23 113 -15 -5 -65 26 -65 41 0 7 -11 13 -25 13 -14 0 -25 5 -25 10
0 6 16 10 36 10 30 0 34 3 25 14 -6 7 -26 13 -43 12 -28 -1 -34 -5 -38 -30 -3
-17 -14 -32 -25 -37 -11 -4 -17 -8 -12 -8 4 -1 -2 -10 -12 -20 -11 -11 -23
-40 -26 -65 -4 -25 -11 -46 -16 -46 -5 0 -9 -9 -9 -19 0 -10 -6 -21 -14 -24
-8 -3 -16 -16 -18 -28 -2 -17 -13 -25 -38 -32 -19 -5 -38 -14 -42 -20 -4 -7
-17 -5 -41 6 -39 19 -71 22 -62 7 13 -20 -25 -21 -53 -1 -17 12 -42 20 -60 18
-28 -2 -30 -5 -25 -27 3 -14 10 -30 15 -37 14 -17 -34 -28 -60 -14 -29 16 -34
14 -27 -10 9 -26 -8 -39 -52 -39 -18 0 -33 -5 -33 -10 0 -6 -6 -9 -12 -8 -9 2
-13 -13 -13 -49 1 -28 -3 -49 -7 -47 -4 3 -5 -2 -2 -11 5 -11 14 -15 28 -11
24 6 40 -3 42 -21 3 -41 4 -41 42 -36 46 6 76 -17 69 -53 -3 -16 2 -24 15 -27
24 -7 23 -38 -2 -44 -28 -7 -25 -17 17 -58 44 -43 55 -44 70 -5 6 17 18 30 27
30 8 0 20 9 27 21 9 18 16 20 57 14 26 -4 52 -11 58 -16 6 -5 14 -6 17 -2 4 3
12 1 19 -4 17 -13 68 -22 68 -12 0 4 -4 10 -9 13 -8 5 -8 29 0 46 1 3 3 12 3
20 1 8 10 15 21 16 41 2 45 5 45 29 0 27 20 35 75 32 27 -2 30 1 28 25 -2 31
12 36 79 33 36 -2 45 0 41 11 -3 8 0 14 6 14 6 0 10 6 8 13 -1 7 6 11 16 9 15
-3 17 1 12 17 -5 18 -2 20 24 18 17 -1 31 -5 31 -8 0 -6 45 -29 57 -29 3 0 0
7 -7 15 -11 13 -9 19 9 34 12 10 21 23 20 27 -5 21 15 43 42 49 34 8 37 28 7
49 -12 9 -19 19 -15 22 4 4 12 2 19 -3 7 -6 28 -13 45 -15 32 -4 32 -4 16 15
-24 26 -26 77 -4 77 9 0 27 -8 41 -17 22 -16 23 -16 17 0 -4 10 -1 17 6 17 7
1 2 9 -11 20 l-22 19 24 24 c21 21 32 24 67 20 42 -6 42 -6 35 22 -4 15 -17
36 -29 45 -20 16 -24 37 -18 97 2 19 72 36 145 35 37 0 70 -2 71 -4 2 -2 5
-14 7 -28 3 -22 -1 -25 -24 -23 -19 1 -25 -2 -22 -12 4 -10 -5 -15 -33 -17
-27 -2 -39 -8 -41 -21 -3 -15 1 -18 15 -13 30 10 65 -34 61 -75 -3 -29 0 -34
21 -37 14 -2 35 -11 47 -19 26 -17 46 -10 37 12 -7 20 6 19 62 -5 64 -27 75
-26 75 9 0 17 -4 33 -10 36 -12 7 -8 53 6 78 9 16 12 17 23 3 8 -9 22 -16 33
-16 20 0 38 -35 31 -60 -4 -12 -3 -12 5 -2 10 15 21 15 40 0 8 -7 16 -7 25 0
17 14 49 -10 45 -34 -2 -14 5 -19 31 -21 19 -2 47 -10 64 -18 17 -8 33 -15 37
-15 4 0 20 20 36 45 15 25 36 47 46 51 10 3 18 11 18 18 0 20 81 69 94 56 5
-5 18 -10 28 -10 24 0 23 -27 -3 -42 -33 -21 -62 -75 -55 -104 4 -16 3 -23 -3
-20 -6 4 -9 -5 -8 -21 2 -23 -2 -29 -24 -31 -22 -3 -26 -7 -21 -25 2 -12 9
-27 14 -34 14 -17 -34 -28 -60 -14 -11 6 -51 10 -89 9 -68 -2 -98 6 -88 21 2
5 -7 21 -20 35 -14 15 -25 35 -25 44 0 13 -10 17 -44 19 l-45 2 4 -49 c5 -56
-4 -67 -55 -66 -30 1 -35 4 -33 24 2 19 -1 21 -21 16 -13 -3 -33 -1 -44 5 -15
8 -21 7 -25 -2 -6 -15 -80 -15 -100 1 -6 5 -24 12 -38 15 -23 6 -25 4 -21 -22
4 -26 2 -28 -23 -23 -19 3 -30 0 -37 -11 -6 -12 -19 -15 -54 -12 -28 3 -43 1
-39 -5 8 -14 -41 -13 -67 1 -15 8 -19 8 -14 0 4 -6 0 -11 -9 -11 -17 0 -17 -2
2 -46 2 -6 -3 -18 -11 -27 -9 -9 -16 -25 -16 -36 0 -16 -6 -21 -25 -21 -18 0
-25 -5 -25 -19 0 -21 -23 -45 -33 -34 -7 6 -11 -20 -7 -46 2 -18 -20 -32 -41
-26 -9 3 -22 -1 -29 -10 -18 -21 -33 -19 -25 4 7 24 -26 61 -55 61 -29 0 -27
-38 3 -42 14 -2 23 -11 25 -25 3 -18 12 -23 50 -28 65 -9 72 -12 66 -29 -11
-30 7 -37 37 -16 32 23 32 24 29 -37 -1 -24 3 -43 8 -43 17 0 28 24 28 58 -1
17 2 32 7 32 4 0 7 8 7 18 0 9 10 29 23 44 21 26 26 27 79 22 42 -5 55 -10 51
-20 -3 -8 1 -14 11 -14 21 0 20 -27 -1 -39 -17 -9 -17 -10 0 -16 21 -9 23 -25
2 -25 -8 0 -15 -4 -15 -9 0 -5 -9 -13 -20 -16 -11 -4 -18 -11 -14 -16 3 -5 14
-7 24 -4 21 7 35 -10 35 -40 0 -14 8 -21 26 -23 16 -2 32 -13 39 -28 7 -13 17
-24 22 -24 5 0 18 -9 30 -20 12 -11 27 -20 32 -20 6 0 3 7 -6 14 -17 12 -25
36 -12 36 3 0 15 -5 27 -11 12 -7 19 -8 15 -4 -4 4 -1 17 7 28 10 15 11 25 3
40 -9 17 -5 24 21 44 17 13 31 33 31 44 0 12 9 21 27 25 15 4 37 19 49 34 19
21 29 25 58 22 20 -2 39 -8 42 -13 3 -5 21 -9 40 -9 21 0 42 -8 54 -20 11 -11
26 -17 35 -14 24 10 57 -24 45 -47 -7 -13 -5 -22 7 -35 22 -22 27 -143 6 -151
-8 -3 -22 -22 -33 -43 -15 -30 -27 -39 -62 -48 -102 -26 -116 -25 -158 8 -22
18 -40 40 -40 51 0 22 -11 24 -28 7 -21 -21 -13 -48 22 -79 35 -31 44 -69 16
-69 -20 0 -80 37 -80 50 0 5 -9 10 -19 10 -11 0 -23 5 -26 10 -9 15 -35 12
-35 -5 0 -28 -49 5 -61 42 -9 30 -15 34 -35 29 -22 -6 -29 1 -25 27 0 4 -15 7
-34 7 -19 0 -35 5 -35 10 0 6 6 10 13 9 6 -1 22 -1 35 0 28 1 19 21 -9 21 -11
0 -22 7 -25 15 -4 9 -13 13 -23 10 -9 -3 -41 4 -71 15 -47 17 -55 18 -63 5
-12 -21 -41 -20 -33 2 6 15 5 15 -13 -1 -25 -22 -45 -13 -31 14 5 10 10 23 10
28 0 18 -33 22 -56 7 -13 -8 -26 -15 -29 -15 -11 0 -4 42 10 56 22 22 19 34
-8 34 -15 0 -28 -8 -33 -21 l-9 -20 -27 20 c-15 12 -28 34 -30 49 -2 16 -10
28 -20 30 -14 3 -18 -3 -18 -27 0 -30 -6 -35 -42 -32 -10 1 -18 -2 -18 -7 0
-6 -7 -13 -16 -16 -12 -5 -14 -1 -8 16 6 20 5 21 -10 9 -26 -22 -20 -67 12
-90 l28 -20 -4 29 c-4 25 -1 28 17 23 12 -3 21 -9 21 -13 0 -4 9 -10 20 -13
11 -3 20 -1 20 4 0 5 6 9 14 9 8 0 16 5 18 12 3 8 11 7 28 -5 14 -9 20 -17 15
-17 -5 0 5 -12 21 -27 19 -19 29 -39 30 -60 2 -40 -14 -46 -67 -28 -50 18 -42
19 -68 -4 -13 -12 -18 -22 -11 -26 5 -3 10 -18 10 -32 0 -19 4 -24 16 -19 9 3
22 6 30 6 9 0 12 5 9 10 -9 15 8 12 33 -6 13 -9 22 -11 22 -4 0 7 6 8 17 2 11
-7 25 -6 41 1 21 10 27 7 57 -25 27 -31 38 -36 63 -32 20 3 38 -1 51 -12 11
-10 44 -27 73 -39 48 -19 53 -24 56 -56 4 -42 20 -63 37 -49 17 14 26 1 14
-22 -15 -27 5 -46 56 -54 24 -3 48 -15 60 -29 11 -13 30 -26 41 -29 19 -6 22
-14 20 -51 0 -27 3 -45 10 -45 17 0 71 -29 84 -45 7 -8 18 -15 24 -15 7 0 30
-13 51 -29 22 -16 45 -26 53 -24 9 4 12 -1 10 -13 -2 -15 2 -18 19 -17 13 2
23 -2 23 -7 0 -5 10 -18 22 -29 18 -18 20 -24 10 -46 -15 -33 -15 -35 3 -35
17 0 35 -39 35 -76 0 -22 -3 -24 -22 -18 -13 4 -25 10 -28 14 -3 4 -17 10 -33
14 -15 3 -46 25 -69 47 -22 22 -46 38 -52 36 -6 -2 -21 2 -35 9 -15 8 -32 9
-46 4 -34 -13 -45 1 -40 52 5 47 -9 72 -36 66 -9 -2 -14 6 -14 21 0 32 -21 38
-28 9 -4 -14 -1 -26 8 -31 8 -4 15 -13 15 -19 0 -6 6 -19 14 -27 18 -21 37
-91 28 -105 -4 -6 -11 -29 -17 -51 -14 -57 -47 -61 -72 -9 -10 21 -32 44 -49
53 -19 10 -36 29 -43 48 -7 18 -25 42 -41 53 -16 11 -34 36 -40 54 -6 19 -19
36 -30 39 -13 3 -17 11 -13 25 3 15 -3 29 -22 46 -15 14 -24 29 -21 35 4 5 2
12 -4 16 -6 4 -6 13 0 25 6 11 15 29 20 40 15 29 12 70 -5 76 -8 4 -15 14 -15
23 -1 22 -45 75 -58 67 -17 -10 -104 25 -98 40 6 17 -10 28 -26 18 -16 -10
-59 -12 -83 -4 -15 6 -10 9 23 15 30 5 41 10 34 17 -6 6 -19 7 -29 3 -33 -15
-74 -16 -89 -4 -10 8 -18 8 -27 1 -19 -16 -67 -22 -88 -12 -18 10 -18 19 -2
60 15 37 6 58 -23 52 -31 -6 -59 15 -44 33 6 7 8 25 4 39 -5 21 -12 26 -38 27
l-31 1 30 9 c17 5 36 7 43 4 8 -3 12 0 10 7 -3 7 -17 14 -31 16 -21 3 -27 9
-27 27 0 23 -25 41 -35 25 -3 -5 -3 -20 1 -34 5 -21 2 -26 -20 -32 -14 -3 -26
-10 -26 -15 0 -5 -7 -9 -15 -9 -21 0 -19 -24 5 -45 20 -18 20 -18 0 -35 -11
-10 -20 -21 -20 -26 -1 -24 -74 -71 -85 -55 -2 5 -20 12 -39 15 -19 4 -45 16
-60 27 -14 11 -39 24 -56 30 -16 6 -30 15 -30 20 0 5 -9 1 -19 -8 -11 -9 -18
-21 -15 -25 3 -5 -1 -17 -10 -27 -15 -16 -15 -19 5 -37 22 -19 22 -19 17 8 -5
26 6 38 37 43 17 2 45 -27 45 -47 0 -15 5 -17 25 -12 22 5 27 2 36 -25 6 -17
15 -31 21 -31 15 0 39 -28 36 -42 -2 -7 4 -12 11 -10 8 2 26 -2 39 -9 19 -11
25 -11 32 1 12 20 35 -2 38 -36 3 -37 5 -38 46 -23 26 9 38 10 49 1 10 -9 16
-9 25 0 16 16 45 -10 38 -35 -2 -10 3 -26 13 -36 10 -10 20 -25 24 -34 5 -14
18 -17 72 -15 63 3 65 4 65 30 0 18 8 33 25 44 23 15 28 15 60 0 20 -10 52
-16 73 -14 56 5 86 -31 116 -142 12 -43 16 -145 6 -145 -1 0 -3 -8 -5 -18 -2
-9 -13 -25 -25 -35 -20 -16 -21 -21 -9 -40 8 -12 22 -25 31 -28 20 -6 32 -37
23 -63 -3 -11 -1 -22 5 -26 16 -10 12 -28 -6 -21 -12 5 -14 1 -8 -17 4 -12 7
-28 7 -34 0 -7 9 -15 19 -19 11 -3 17 -12 14 -20 -6 -16 7 -25 47 -33 28 -6
30 -10 31 -51 2 -48 0 -46 61 -37 5 1 9 -5 10 -13 0 -8 9 -15 20 -15 14 0 21
-8 23 -28 4 -31 9 -33 41 -11 14 10 26 13 30 7 3 -6 17 -14 29 -18 17 -5 22
-12 19 -26 -12 -44 44 -120 64 -87 7 10 12 11 29 1 25 -16 50 -17 50 -2 0 6 7
9 15 5 9 -3 15 0 15 9 0 8 9 15 19 15 11 0 23 5 27 11 3 6 17 8 31 4 16 -4 35
0 50 11 22 14 27 14 40 1 13 -12 11 -19 -11 -52 -14 -20 -28 -53 -32 -74 -9
-57 -12 -61 -42 -67 -19 -4 -29 -12 -28 -22 1 -10 -7 -17 -19 -17 -12 0 -21
-9 -25 -24 -3 -13 -13 -25 -22 -27 -9 -1 -29 -11 -45 -22 -33 -23 -90 -36 -98
-22 -3 6 1 10 9 10 14 0 14 3 4 20 -11 17 -7 25 31 64 47 47 47 69 2 60 -16
-4 -32 -1 -35 5 -5 7 4 11 23 11 31 0 49 14 31 25 -6 4 -16 2 -23 -4 -20 -16
-68 -21 -89 -10 -16 9 -25 6 -42 -10 -12 -12 -26 -18 -29 -14 -11 10 -8 53 3
53 6 0 10 11 10 25 0 14 6 25 12 25 7 0 3 10 -9 21 -25 26 -49 20 -63 -15 -18
-49 -103 -42 -116 10 -6 23 -10 25 -41 19 -19 -3 -43 -15 -54 -26 -10 -10 -24
-19 -30 -19 -6 0 -9 -9 -6 -20 5 -20 -7 -28 -17 -11 -3 5 -18 12 -33 16 -44
11 -65 35 -58 66 3 15 1 30 -4 34 -6 3 -11 14 -11 24 0 10 -10 22 -22 26 -20
7 -18 9 15 12 42 5 46 24 6 34 -13 3 -23 11 -22 16 1 6 -4 17 -13 23 -11 10
-18 10 -32 -4 -25 -22 -32 -20 -29 6 1 17 -5 24 -28 29 l-30 6 33 8 c38 9 43
25 7 25 -21 0 -25 5 -25 30 0 34 -10 38 -33 13 -13 -16 -14 -20 -1 -37 16 -22
19 -66 5 -66 -5 0 -7 -9 -4 -19 3 -11 11 -17 18 -14 8 2 24 -5 36 -16 13 -12
18 -21 12 -21 -6 0 -10 -14 -9 -32 1 -27 6 -33 36 -41 31 -8 33 -10 17 -22
-22 -16 -22 -32 2 -40 15 -4 18 -14 16 -58 -1 -28 2 -60 8 -71 13 -26 16 -66
5 -66 -5 0 -7 -9 -3 -19 3 -11 1 -22 -4 -25 -16 -10 -83 22 -78 36 2 7 -6 28
-19 47 -17 26 -31 34 -53 35 l-30 1 33 -35 c19 -19 37 -45 41 -58 7 -25 59
-62 86 -62 8 0 26 11 38 24 25 27 29 66 16 154 -8 55 -3 62 32 37 11 -8 38
-17 59 -20 34 -6 42 -3 68 24 36 38 59 39 99 5 31 -26 74 -30 118 -10 13 6 16
2 13 -16 -7 -43 18 -60 90 -62 35 0 67 -4 71 -8 4 -4 -3 -23 -15 -43 -28 -45
-19 -92 23 -115 26 -14 30 -13 93 20 36 19 71 42 77 50 7 9 33 33 59 54 36 28
51 49 58 80 6 22 21 60 33 83 17 34 19 47 11 70 -10 27 -11 28 -78 25 -48 -2
-82 -10 -115 -27 -36 -18 -57 -22 -89 -18 -38 5 -43 9 -52 44 -12 43 -51 79
-87 79 -13 0 -46 16 -74 35 -28 19 -54 35 -58 35 -4 0 -12 13 -18 29 -6 16
-23 37 -39 47 -52 32 -64 54 -64 120 0 48 -5 69 -24 97 l-24 35 21 56 c12 31
25 56 30 56 4 0 15 -13 25 -28 24 -40 68 -94 130 -160 28 -31 52 -59 52 -64 0
-4 11 -15 25 -24 42 -27 73 -12 100 50 13 30 30 56 37 58 25 9 86 -14 124 -45
38 -32 126 -77 148 -77 41 0 58 71 31 124 -8 15 -15 38 -15 50 0 48 -36 82
-185 176 -95 59 -115 76 -125 105 -13 41 -95 112 -138 121 -19 4 -35 17 -46
37 -57 107 -66 116 -149 157 -45 22 -90 40 -100 40 -11 0 -35 14 -54 30 -21
19 -45 30 -64 30 -26 0 -29 2 -19 19 5 11 10 32 10 47 0 26 1 27 20 9 16 -14
30 -17 71 -12 61 7 137 -10 144 -34 3 -8 27 -31 53 -49 26 -19 62 -48 80 -67
25 -25 40 -32 67 -31 22 1 49 -8 75 -26 62 -41 92 -43 121 -9 20 24 36 30 101
39 93 14 116 27 162 96 28 43 34 63 34 103 0 44 -17 122 -37 165 -10 21 -92
59 -178 81 -71 19 -76 19 -111 2 -52 -24 -147 -124 -162 -170 -21 -63 -40 -63
-104 2 -33 33 -34 35 -29 97 5 57 3 67 -19 92 -19 23 -35 30 -76 34 -59 5 -90
-10 -118 -58 -13 -22 -26 -30 -46 -30 -15 0 -30 5 -33 11 -10 16 23 80 66 124
21 22 47 61 57 86 18 41 24 47 59 52 21 4 48 7 61 7 13 0 50 13 83 30 50 24
64 28 82 19 12 -7 43 -9 78 -6 47 5 61 3 82 -13 52 -41 147 -9 147 50 0 34 27
23 60 -25 35 -51 38 -52 171 -59 84 -5 99 -3 113 13 9 10 16 26 16 35 0 10 9
30 19 45 11 14 22 47 26 72 4 30 19 61 41 89 19 23 34 47 34 52 0 5 -11 20
-25 33 -50 51 -122 24 -212 -79 -39 -44 -44 -47 -78 -40 -21 4 -52 20 -70 35
-18 17 -44 29 -59 29 -16 0 -37 10 -50 25 -13 14 -39 31 -59 40 -32 13 -37 13
-60 -6 -18 -13 -28 -33 -33 -64 -3 -25 -7 -45 -8 -45 0 0 -16 4 -35 10 -22 6
-40 6 -53 -1 -32 -17 -55 -1 -71 49 l-16 47 29 23 c35 27 40 70 12 94 -41 37
-166 34 -224 -6 -32 -21 -33 -24 -34 -92 l-1 -69 -64 -67 c-35 -38 -67 -68
-72 -68 -12 0 -8 59 7 88 8 15 26 72 41 126 23 84 25 102 14 122 -17 33 -35
36 -176 35 -87 0 -131 -5 -151 -15 -25 -13 -34 -13 -68 -1 -59 21 -143 19
-182 -5 -46 -28 -57 -26 -111 25 l-48 45 -79 0 c-76 0 -81 -1 -107 -31z m514
-248 c40 -35 44 -42 42 -82 -2 -55 13 -107 40 -136 16 -18 31 -23 72 -23 51 0
115 -16 115 -28 0 -4 -9 -21 -20 -39 -17 -28 -23 -31 -54 -26 -30 5 -40 0 -79
-36 -24 -22 -54 -41 -66 -41 -27 0 -55 -14 -82 -41 -10 -10 -29 -19 -41 -19
-28 0 -138 -100 -138 -125 0 -14 -6 -16 -37 -11 -128 21 -135 20 -180 -18 -51
-44 -64 -45 -62 -3 2 69 -51 157 -95 157 -29 0 -99 72 -94 96 2 12 19 24 43
32 22 7 46 19 55 26 8 7 28 16 43 20 17 4 32 17 39 34 7 15 13 29 14 30 2 2
17 -1 36 -8 22 -8 41 -9 58 -2 16 6 35 6 52 0 33 -12 109 14 140 46 26 27 64
102 73 144 8 36 50 92 70 92 7 0 32 -17 56 -39z m-51 -820 c5 -11 10 -29 10
-39 0 -11 14 -33 30 -49 21 -19 30 -37 30 -59 0 -19 9 -39 24 -53 21 -20 31
-22 71 -17 52 8 181 -17 229 -44 17 -10 47 -23 66 -29 49 -16 100 -97 71 -115
-4 -3 -17 4 -27 15 -27 30 -53 42 -109 51 -27 4 -65 10 -83 14 -29 6 -37 2
-71 -35 -29 -31 -45 -41 -69 -41 -33 0 -62 29 -62 61 0 32 -48 59 -105 59 -42
0 -56 5 -75 25 -14 15 -35 25 -52 25 -16 0 -41 12 -60 29 l-32 29 34 7 c62 13
138 103 126 150 -3 12 -3 25 1 29 13 13 43 5 53 -13z m322 -1181 c3 -19 1 -29
-6 -27 -14 4 -21 57 -8 57 5 0 12 -14 14 -30z"/>
<path d="M1555 2813 c-21 -12 -26 -18 -15 -21 25 -9 40 -30 34 -46 -11 -30 27
-32 48 -3 11 15 27 27 36 27 12 0 8 8 -13 30 -33 34 -47 36 -90 13z"/>
<path d="M691 2801 c-9 -9 -25 -21 -35 -24 -10 -4 -20 -16 -23 -27 -4 -14 -11
-19 -23 -15 -21 7 -21 -25 0 -50 12 -15 12 -21 -3 -47 -9 -16 -17 -36 -17 -44
0 -20 -27 -29 -45 -14 -16 13 -35 6 -35 -15 0 -18 28 -27 49 -16 22 12 40 1
44 -29 4 -22 9 -24 71 -26 59 -2 66 0 54 13 -7 9 -13 29 -14 44 -2 33 12 37
56 14 26 -14 29 -14 24 0 -4 8 -2 15 4 15 6 0 8 9 5 20 -4 15 0 20 16 20 28 0
27 6 -14 52 l-35 38 20 22 c11 12 18 28 15 36 -3 7 -5 20 -5 28 0 8 -6 11 -15
8 -8 -3 -28 -1 -45 5 -26 8 -34 7 -49 -8z m61 -68 c-2 -17 4 -46 13 -63 20
-39 14 -60 -18 -60 -25 0 -49 -22 -60 -53 -9 -26 -36 -32 -55 -13 -15 15 -15
20 2 70 10 30 16 62 12 72 -10 26 51 86 84 82 22 -3 25 -7 22 -35z"/>
<path d="M875 2770 c-4 -6 -1 -17 5 -25 13 -15 4 -20 -28 -16 -8 2 -12 -5 -10
-16 5 -25 37 -27 76 -3 36 22 42 40 12 40 -11 0 -20 7 -20 15 0 17 -26 20 -35
5z"/>
<path d="M1053 2669 c-28 -18 -33 -19 -33 -5 0 11 -9 16 -27 16 -25 -1 -26 -2
-11 -14 10 -7 21 -27 24 -45 8 -38 20 -39 46 -6 22 28 38 32 38 10 0 -8 -11
-22 -25 -31 -27 -17 -33 -34 -12 -34 22 1 119 99 113 115 -8 22 -75 18 -113
-6z"/>
<path d="M231 2616 c-7 -8 -9 -27 -6 -42 3 -16 7 -35 9 -43 1 -8 12 -21 24
-29 21 -14 21 -13 20 22 -1 20 -7 41 -13 46 -7 6 -10 21 -7 35 5 27 -9 33 -27
11z"/>
<path d="M1535 2622 c-10 -10 -5 -49 8 -59 8 -7 23 -7 44 1 l31 11 -22 25
c-20 24 -49 34 -61 22z"/>
<path d="M1965 2575 c-17 -13 -18 -16 -5 -25 32 -21 64 0 38 26 -12 12 -17 12
-33 -1z"/>
<path d="M463 2461 c-13 -21 -8 -31 16 -31 10 0 17 10 19 25 2 30 -18 33 -35
6z"/>
<path d="M532 2396 c2 -16 11 -21 38 -23 30 -2 32 -1 10 6 -24 8 -23 8 12 16
50 10 39 24 -18 23 -40 0 -45 -3 -42 -22z"/>
<path d="M341 2393 c-26 -5 -60 -39 -61 -61 0 -9 -5 -10 -19 -2 -25 13 -31 13
-31 -3 0 -7 9 -18 20 -25 22 -13 27 -42 8 -42 -7 0 -22 12 -35 28 -19 23 -24
25 -33 12 -13 -19 -13 -50 0 -50 6 0 10 -7 10 -16 0 -8 -4 -13 -9 -10 -11 7
-1 -45 12 -61 7 -9 5 -13 -8 -13 -13 0 -15 -6 -10 -30 6 -27 4 -30 -18 -30
-42 0 -43 -33 -2 -56 11 -7 19 -21 18 -32 -1 -11 4 -25 12 -32 11 -9 17 -7 27
9 7 12 23 21 35 21 12 0 29 10 37 21 12 18 26 22 78 24 73 3 108 -7 115 -34 2
-10 18 -28 34 -40 16 -12 29 -28 29 -36 0 -7 5 -17 12 -21 8 -5 9 2 5 24 -6
27 -4 32 13 32 14 0 18 5 13 18 -6 15 -5 15 10 3 9 -7 17 -12 18 -10 7 39 6
61 -4 64 -54 19 -70 28 -59 32 10 4 10 9 -3 23 -17 18 -12 70 7 70 5 0 6 5 3
10 -12 19 -38 11 -32 -9 4 -15 -2 -20 -27 -23 -17 -2 -39 -2 -48 0 -20 4 -25
20 -5 19 30 -1 47 4 47 13 0 6 -9 10 -20 10 -10 0 -23 7 -28 15 -4 9 -21 19
-38 24 -17 4 -29 14 -29 24 0 8 -4 19 -8 23 -12 13 -8 72 7 87 11 11 12 17 3
26 -6 6 -13 10 -16 10 -4 -1 -17 -4 -30 -6z m2 -100 c4 -41 12 -54 46 -83 23
-20 41 -42 41 -49 0 -17 30 -40 52 -41 10 0 25 -12 35 -27 9 -16 26 -38 37
-51 15 -17 17 -25 8 -34 -9 -9 -21 -3 -52 27 -38 37 -45 40 -108 43 -59 4 -75
0 -120 -23 -51 -27 -82 -28 -82 -3 0 7 7 31 15 53 8 22 14 59 15 83 0 32 4 42
17 42 26 0 53 30 53 60 0 24 16 50 31 50 3 0 9 -21 12 -47z"/>
<path d="M663 2106 c4 -10 7 -20 7 -22 0 -2 7 -4 15 -4 9 0 21 -11 27 -25 13
-29 38 -33 38 -6 0 11 -15 29 -37 42 -53 33 -57 34 -50 15z"/>
<path d="M2382 2075 c-7 -8 -27 -15 -43 -15 -22 0 -32 -6 -36 -19 -3 -11 -18
-25 -34 -31 -34 -14 -38 -35 -9 -43 15 -4 20 0 20 14 0 22 9 24 45 7 19 -9 28
-9 37 0 15 15 50 15 83 0 28 -12 31 -28 13 -61 -6 -12 -11 -36 -10 -54 2 -29
0 -32 -30 -35 -38 -4 -46 -31 -10 -36 12 -2 22 1 22 7 0 6 11 11 24 11 13 0
29 7 36 15 7 8 19 15 26 15 21 0 17 79 -6 125 -11 22 -20 44 -20 51 0 6 -13
17 -30 24 -16 7 -35 18 -41 26 -14 17 -21 17 -37 -1z"/>
<path d="M315 1941 c3 -17 2 -32 -4 -36 -28 -17 -9 -28 38 -22 28 3 64 2 80
-3 21 -6 31 -5 31 2 0 14 -50 61 -57 54 -3 -3 -17 4 -31 14 -13 11 -33 20 -44
20 -16 0 -19 -5 -13 -29z"/>
<path d="M420 1952 c0 -9 25 -33 49 -47 7 -4 3 6 -10 24 -22 30 -39 40 -39 23z"/>
<path d="M743 1853 c26 -2 68 -2 95 0 26 2 4 3 -48 3 -52 0 -74 -1 -47 -3z"/>
<path d="M1058 1853 c17 -2 47 -2 65 0 17 2 3 4 -33 4 -36 0 -50 -2 -32 -4z"/>
<path d="M582 1838 c-7 -7 -12 -17 -12 -24 0 -7 -4 -14 -8 -16 -4 -1 -18 -20
-31 -40 -18 -30 -29 -38 -52 -38 -17 0 -36 -8 -46 -19 -11 -14 -24 -18 -43
-15 -23 5 -26 2 -28 -26 -2 -27 1 -32 16 -28 22 6 44 -16 40 -39 -2 -11 6 -22
20 -28 12 -5 20 -16 17 -23 -3 -8 -5 -22 -5 -33 0 -15 -5 -17 -32 -12 -22 4
-29 3 -24 -5 4 -7 13 -12 20 -12 19 0 50 -37 37 -44 -5 -4 -9 -31 -7 -61 2
-47 0 -57 -19 -69 -13 -9 -25 -30 -29 -49 -9 -48 -25 -58 -78 -51 -34 5 -49
12 -56 29 -10 22 -67 55 -96 55 -9 0 -16 3 -16 6 0 10 28 34 39 34 17 0 13 21
-6 35 -17 13 -17 14 0 33 10 11 18 29 16 39 -1 10 5 35 15 55 15 35 18 37 43
27 26 -9 26 -9 11 8 -13 14 -15 27 -8 61 7 39 5 46 -19 70 -17 18 -37 27 -58
27 -41 1 -41 -5 0 -30 40 -26 49 -80 19 -123 -23 -32 -52 -124 -52 -164 0 -16
-4 -38 -10 -48 -10 -19 -12 -17 77 -95 32 -28 41 -41 34 -53 -4 -10 -11 -45
-15 -80 -4 -46 -13 -72 -32 -98 -51 -67 -41 -158 22 -186 15 -7 24 -20 24 -33
0 -18 -5 -21 -28 -17 -18 2 -35 -2 -45 -13 -29 -28 -20 -62 28 -114 25 -26 45
-56 45 -65 0 -9 7 -30 15 -46 l16 -30 -40 0 c-48 0 -64 -18 -65 -72 -1 -62 26
-77 140 -80 104 -3 129 9 140 66 5 31 7 32 57 33 l52 1 3 -51 c2 -28 6 -55 8
-59 13 -21 88 -49 132 -48 26 0 64 -1 84 -2 28 -1 45 5 64 23 23 21 25 30 20
68 -5 33 -2 49 13 70 12 17 24 61 32 117 11 80 16 92 46 120 23 22 33 40 33
60 0 16 7 39 15 51 9 13 18 56 22 101 l6 79 36 -2 c28 0 37 -5 39 -21 2 -12
-4 -27 -13 -34 -19 -16 -19 -60 0 -107 19 -45 20 -43 -14 -43 -41 0 -81 -43
-81 -87 0 -40 -12 -65 -51 -111 -35 -40 -36 -46 -4 -77 19 -20 34 -25 77 -25
68 0 83 10 83 56 l0 37 63 4 c40 3 68 0 78 -7 20 -17 18 -25 -11 -38 -14 -7
-31 -24 -37 -39 -7 -16 -20 -39 -30 -52 -20 -26 -16 -83 7 -111 24 -30 25 -39
3 -59 -15 -14 -33 -20 -60 -19 -25 1 -48 -6 -66 -19 -23 -17 -27 -28 -27 -69
0 -27 -3 -54 -8 -61 -7 -11 -59 -12 -869 -13 l-158 0 0 -35 0 -35 604 0 c393
0 607 4 611 10 3 6 32 10 64 10 83 0 98 19 104 132 4 69 10 93 26 114 26 34
27 64 1 97 -26 33 -26 35 15 81 27 31 45 41 78 46 l42 6 -32 17 c-18 10 -33
23 -33 31 0 7 -9 21 -20 31 -11 10 -20 26 -20 35 0 10 -9 28 -20 41 l-19 24
-1 -31 c0 -16 6 -36 13 -43 10 -11 9 -13 -5 -8 -22 8 -22 3 -4 -26 21 -34 28
-87 12 -87 -8 0 -16 -7 -20 -15 -3 -8 -14 -15 -24 -15 -18 0 -21 -9 -25 -64
-2 -24 3 -31 22 -36 17 -4 25 -14 28 -32 4 -28 -10 -42 -42 -43 -28 0 -32 -40
-6 -55 24 -12 28 -40 6 -40 -17 0 -20 -25 -5 -35 16 -10 12 -25 -5 -19 -8 4
-15 2 -15 -4 0 -5 6 -12 14 -15 8 -3 12 -15 9 -29 -4 -23 -4 -23 -146 -20 -78
2 -143 5 -145 7 -2 2 2 12 10 24 11 17 10 25 -6 51 -10 17 -16 33 -14 34 46
35 85 40 113 15 15 -15 38 -10 31 6 -3 8 -1 15 4 15 6 0 10 7 10 15 0 8 14 17
36 21 l35 6 -25 27 c-14 15 -26 32 -26 39 0 6 -7 9 -16 5 -14 -5 -16 -2 -10
20 3 15 3 27 -2 27 -9 0 -14 40 -4 41 76 7 85 14 52 39 -20 15 -22 22 -13 31
10 10 16 9 31 -4 29 -27 45 -21 40 13 -3 17 0 30 5 30 6 0 3 8 -6 18 -11 12
-14 30 -10 65 5 39 3 47 -11 47 -18 0 -22 -25 -6 -35 24 -15 6 -25 -42 -24
l-53 2 38 10 c39 11 50 27 18 27 -11 0 -26 3 -35 6 -11 4 -17 -2 -22 -21 -6
-26 -9 -27 -55 -23 -39 4 -52 1 -66 -14 -17 -19 -17 -20 0 -33 9 -6 17 -17 17
-24 0 -6 5 -11 10 -11 6 0 10 -4 10 -9 0 -9 -92 -12 -122 -4 -26 7 -22 20 17
57 19 19 35 38 35 45 0 6 4 11 9 11 4 0 7 23 6 50 -1 28 2 53 8 57 19 12 97
13 97 1 0 -5 7 -7 16 -4 8 3 26 -1 39 -10 23 -15 25 -15 31 2 4 11 12 25 18
32 14 19 18 52 5 52 -5 0 -7 -5 -4 -10 10 -16 -48 -12 -91 6 -22 9 -33 19 -26
22 10 3 8 10 -8 27 -12 13 -17 25 -12 29 6 3 8 15 5 26 -6 24 -1 25 35 6 27
-14 27 -14 28 20 0 20 -4 34 -11 34 -7 0 -17 11 -23 25 -6 14 -16 25 -22 25
-5 0 -10 10 -10 21 0 18 -2 19 -15 9 -8 -7 -15 -19 -15 -26 0 -21 -37 -17 -43
5 -3 15 2 20 25 25 23 5 29 10 26 28 -2 12 -9 23 -16 26 -7 2 -10 -2 -6 -12 5
-12 0 -16 -21 -16 -14 0 -35 5 -46 10 -16 9 -19 7 -19 -9 0 -11 5 -23 10 -26
6 -3 10 -11 10 -16 0 -6 -5 -7 -10 -4 -12 8 -3 -43 11 -61 12 -15 1 -24 -19
-17 -14 6 -14 5 0 -16 21 -30 13 -100 -14 -123 -11 -10 -16 -18 -12 -18 5 0 2
-5 -6 -10 -13 -8 -13 -12 -1 -32 10 -16 10 -23 2 -26 -6 -2 -11 -9 -11 -16 0
-8 -11 -11 -32 -8 -28 4 -30 2 -25 -17 4 -15 1 -21 -11 -21 -15 0 -15 -2 -2
-10 8 -5 11 -10 6 -10 -5 0 -3 -6 3 -14 9 -10 9 -20 3 -33 -6 -10 -10 -29 -11
-43 -1 -77 -4 -85 -36 -83 -22 2 -26 0 -15 -7 12 -8 13 -13 3 -29 -10 -15 -9
-22 2 -31 8 -7 15 -25 15 -41 0 -22 -5 -29 -20 -29 -11 0 -20 -4 -20 -10 0
-15 -21 -12 -42 7 -16 14 -23 15 -59 3 -29 -10 -42 -11 -47 -3 -4 7 -20 13
-36 16 -28 3 -29 6 -31 56 -1 38 1 51 11 47 7 -3 18 2 24 10 7 8 26 14 43 14
24 0 28 3 19 12 -7 7 -12 22 -12 35 0 13 -4 23 -10 23 -5 0 -10 9 -10 19 0 12
-9 22 -22 26 -13 4 -30 16 -39 28 -24 30 -49 16 -49 -28 0 -20 5 -45 11 -56 7
-15 7 -24 -2 -35 -13 -16 -85 -19 -94 -4 -4 6 -11 7 -17 4 -6 -4 -14 0 -19 7
-6 10 -9 11 -9 2 0 -7 -8 -13 -17 -13 -16 -1 -17 -2 -2 -13 26 -19 33 -71 13
-88 -20 -16 -153 -15 -197 2 -30 13 -36 43 -10 53 12 5 14 9 5 18 -24 24 -11
27 29 6 38 -19 42 -20 51 -5 5 10 20 17 33 17 33 0 32 25 -2 42 -32 16 -54 48
-37 55 17 6 -12 60 -35 68 -28 8 -63 51 -66 80 -2 14 0 25 3 25 24 -1 90 -52
117 -90 32 -44 43 -49 77 -35 13 5 27 -2 48 -25 l30 -32 0 31 c0 22 -8 36 -30
53 -16 12 -30 28 -30 35 0 7 -9 13 -20 13 -11 0 -20 7 -20 15 0 8 -9 19 -20
25 -10 6 -17 16 -14 23 3 10 -3 12 -24 9 -16 -2 -33 1 -36 7 -5 7 5 11 26 12
33 0 33 0 10 16 -12 8 -22 23 -22 32 0 12 -10 16 -37 16 l-38 0 0 54 c0 34 5
56 13 59 6 2 12 10 12 17 0 7 13 16 30 20 32 7 39 19 16 28 -14 6 -16 30 -4
43 4 3 4 12 1 20 -3 8 0 14 5 14 7 0 5 10 -3 27 -8 15 -12 29 -10 31 2 3 27 6
54 8 28 1 54 5 59 8 5 3 18 -1 28 -9 28 -21 29 -20 29 32 0 28 5 48 13 51 6 2
12 10 12 17 0 7 11 16 25 19 31 8 32 23 3 53 -24 26 -9 32 17 7 18 -18 45 -12
45 11 0 8 5 15 10 15 20 0 10 28 -12 34 -18 5 -20 8 -9 15 10 6 11 13 2 29
-14 26 -14 72 0 72 19 0 38 26 29 41 -5 7 -6 32 -3 55 4 32 2 42 -11 47 -20 8
-21 37 -2 37 7 0 19 -7 26 -15 18 -22 29 -18 36 13 3 15 8 34 10 43 3 9 -2 24
-11 32 -19 20 -19 37 0 37 21 0 19 17 -3 29 -13 7 -23 6 -30 -1z m-62 -177
c15 -30 12 -104 -6 -130 -13 -18 -15 -36 -9 -88 5 -52 4 -64 -7 -61 -9 3 -13
27 -14 84 -1 65 -6 89 -29 133 -26 52 -26 55 -9 68 26 19 62 16 74 -6z m105
-1131 c17 -19 17 -21 0 -40 -26 -28 -31 -25 -32 20 -2 45 5 49 32 20z m-402
-489 c4 0 7 -7 7 -15 0 -11 -23 -14 -110 -15 -101 -1 -110 0 -110 17 0 17 9
18 103 16 56 -1 105 -2 110 -3z m75 -14 c3 -13 -4 -17 -27 -17 -25 0 -31 4
-31 20 0 17 5 20 28 17 15 -2 28 -11 30 -20z m135 14 c9 0 17 -8 17 -16 0 -24
-133 -17 -138 7 -3 17 1 17 121 9z m90 -1 c9 0 17 -7 17 -16 0 -24 -74 -15
-78 10 -3 15 0 18 19 13 13 -4 32 -7 42 -7z m95 -12 c3 -15 -4 -18 -32 -18
-30 0 -36 4 -36 21 0 17 5 20 32 17 22 -2 34 -9 36 -20z m570 2 c-3 -13 -33
-15 -191 -17 -141 -2 -187 1 -187 10 0 7 -4 6 -10 -3 -8 -12 -13 -13 -29 -3
-13 8 -22 9 -26 3 -3 -6 -31 -10 -61 -10 -46 0 -54 3 -54 19 0 17 14 18 280
17 244 -1 280 -3 278 -16z"/>
<path d="M430 1820 c-8 -5 -15 -14 -15 -20 0 -6 -6 -15 -14 -19 -16 -10 -7
-16 40 -25 26 -5 40 -2 48 8 16 19 6 36 -20 36 -11 0 -18 4 -14 9 8 14 -9 21
-25 11z"/>
<path d="M683 1735 c0 -38 2 -53 4 -32 2 20 2 52 0 70 -2 17 -4 1 -4 -38z"/>
<path d="M284 1735 c15 -14 25 -29 21 -34 -8 -14 13 -23 31 -13 13 7 9 14 -24
40 -48 38 -66 42 -28 7z"/>
<path d="M1007 1663 c-8 -7 2 -54 13 -66 4 -5 10 1 13 12 3 12 1 24 -4 27 -5
3 -7 9 -4 14 6 10 -10 22 -18 13z"/>
<path d="M854 1639 c-14 -16 -16 -24 -7 -39 10 -15 8 -19 -9 -23 -12 -3 -37 1
-56 9 -43 17 -42 17 -42 -1 0 -9 6 -18 13 -21 8 -3 14 -18 14 -35 0 -35 8 -45
45 -54 23 -6 26 -4 21 14 -3 12 -1 21 5 21 6 0 13 14 17 30 4 17 10 28 15 25
19 -11 42 8 37 31 -2 13 0 24 6 24 6 0 2 9 -8 20 -23 25 -27 25 -51 -1z"/>
<path d="M1019 1583 c-20 -5 -31 -53 -17 -71 8 -9 14 -9 24 -1 9 7 18 7 33 0
28 -16 32 -14 28 13 -3 24 -34 67 -46 65 -3 -1 -13 -3 -22 -6z"/>
<path d="M868 1479 c-27 -15 -22 -28 17 -45 31 -12 34 -17 25 -34 -5 -10 -15
-22 -20 -25 -6 -3 -10 -15 -10 -26 0 -16 6 -19 27 -17 21 2 30 -3 38 -19 12
-28 25 -30 25 -3 0 14 11 22 40 31 l40 12 -25 23 c-14 13 -25 27 -25 32 0 6
-8 9 -17 8 -17 -1 -18 3 -6 45 4 13 -3 16 -29 16 -18 0 -40 2 -48 6 -8 4 -23
2 -32 -4z"/>
<path d="M1166 1461 c-3 -4 -17 -6 -31 -3 -21 4 -25 0 -25 -18 0 -17 4 -21 20
-17 26 7 27 -17 1 -35 -51 -36 -13 -101 66 -116 36 -6 55 -5 67 4 15 11 15 13
1 28 -18 18 -41 21 -47 7 -1 -5 -9 -11 -16 -13 -9 -2 -15 10 -17 35 -3 27 0
37 10 37 24 0 17 17 -10 24 -14 4 -25 13 -25 20 0 10 7 12 22 8 14 -3 19 -2
14 6 -4 7 -2 12 5 12 8 0 8 4 -1 15 -14 17 -26 19 -34 6z"/>
<path d="M1300 1445 c0 -9 33 -59 44 -66 5 -4 5 -12 2 -18 -10 -15 19 -25 40
-13 16 9 16 10 -3 21 -12 6 -30 26 -42 46 -17 30 -41 47 -41 30z"/>
<path d="M1622 1438 c-17 -17 -15 -31 4 -24 12 4 15 2 11 -9 -8 -19 8 -28 33
-20 25 8 26 27 2 48 -22 20 -34 21 -50 5z"/>
<path d="M1756 1412 c-7 -12 34 -73 45 -66 5 3 9 21 9 40 0 29 -3 34 -24 34
-14 0 -27 -4 -30 -8z"/>
<path d="M649 1374 c-10 -13 -10 -17 2 -25 23 -14 29 -11 29 16 0 29 -12 32
-31 9z"/>
<path d="M1478 1368 c11 -14 10 -17 -5 -20 -10 -3 -28 -1 -40 3 -22 8 -33 -5
-33 -37 0 -16 26 -13 98 13 35 12 41 18 31 29 -6 8 -15 11 -21 8 -5 -3 -17 0
-26 8 -15 12 -16 11 -4 -4z"/>
<path d="M1055 1320 c-5 -9 45 -53 52 -46 8 7 -16 43 -31 49 -9 4 -18 2 -21
-3z"/>
<path d="M1757 1314 c-10 -11 -9 -64 2 -64 5 0 11 7 15 15 7 18 -7 59 -17 49z"/>
<path d="M580 1271 c0 -11 5 -23 10 -26 18 -11 -1 -25 -26 -19 -25 6 -30 -6
-25 -63 1 -16 -5 -24 -24 -29 -16 -4 -25 -13 -25 -25 0 -14 -7 -19 -29 -19
-34 0 -59 -24 -43 -43 11 -12 8 -109 -3 -127 -3 -6 -19 -10 -35 -10 -17 0 -33
-7 -39 -17 -8 -15 -11 -15 -27 -3 -15 13 -17 13 -12 0 2 -8 17 -16 31 -18 15
-2 27 -10 27 -18 0 -8 16 -22 35 -31 21 -10 35 -24 35 -35 0 -9 9 -22 19 -28
27 -14 41 -13 35 3 -2 7 3 13 13 13 10 1 25 3 33 5 8 2 14 -2 12 -8 -1 -7 7
-13 17 -13 11 0 27 -10 35 -22 20 -28 20 -39 1 -32 -30 12 -14 -14 19 -30 41
-19 59 -20 103 -4 25 9 41 9 63 1 38 -14 39 -1 3 25 -16 11 -25 24 -20 28 4 4
18 -3 32 -16 14 -13 25 -18 25 -11 0 9 5 9 20 1 18 -9 20 -8 20 15 0 14 -6 25
-14 25 -10 0 -13 19 -13 85 1 81 2 85 22 79 11 -4 25 -11 32 -16 19 -16 35 0
23 23 -7 13 -7 19 0 19 19 0 10 39 -12 55 -21 15 -22 17 -6 26 14 8 15 14 6
34 -10 21 -8 28 8 40 10 8 32 15 49 15 22 0 26 3 17 12 -14 14 -73 18 -89 5
-17 -12 -70 1 -77 19 -3 8 -12 14 -20 14 -16 0 -48 44 -45 63 1 6 -1 20 -6 30
-7 16 -9 16 -25 2 -15 -14 -18 -14 -30 0 -7 8 -20 13 -29 10 -10 -3 -27 4 -39
15 -26 25 -32 25 -32 1z m150 -110 c25 -27 63 -58 86 -69 40 -21 41 -22 47
-84 3 -35 2 -64 -3 -66 -5 -2 -20 -12 -34 -23 -23 -18 -26 -27 -26 -90 l0 -69
-47 -30 c-64 -41 -95 -40 -124 6 -29 48 -74 74 -126 74 -30 0 -49 7 -67 24
-31 28 -32 34 -5 62 15 17 23 40 26 88 5 53 10 68 28 80 40 26 85 77 85 96 0
10 12 28 27 40 40 31 77 20 133 -39z"/>
<path d="M882 1269 c-12 -4 -28 -6 -36 -3 -7 3 -16 -1 -19 -9 -5 -14 41 -57
61 -57 5 0 19 -11 32 -25 28 -30 40 -32 33 -5 -3 12 0 20 7 20 6 0 10 6 7 13
-2 6 0 20 5 31 7 12 6 22 -1 29 -14 14 -61 17 -89 6z"/>
<path d="M1663 1215 c0 -33 2 -45 4 -27 2 18 2 45 0 60 -2 15 -4 0 -4 -33z"/>
<path d="M1429 1235 c-15 -8 -29 -22 -33 -30 -3 -9 -9 -14 -14 -11 -4 2 -14 1
-20 -3 -15 -9 0 -61 17 -61 6 0 8 6 6 13 -3 7 12 19 37 29 23 10 42 17 44 15
1 -1 -1 -23 -5 -50 -6 -34 -4 -53 6 -68 14 -19 15 -19 31 -2 17 19 62 20 62 2
0 -5 11 -15 25 -21 21 -9 25 -17 21 -39 -2 -15 -7 -32 -10 -37 -3 -5 8 -27 25
-50 21 -28 26 -42 17 -45 -7 -3 4 -6 24 -6 20 -1 40 4 43 10 5 7 13 4 26 -7
10 -9 16 -20 14 -24 -5 -8 44 -44 51 -37 2 2 -7 16 -21 31 -27 29 -48 95 -27
82 8 -5 12 2 12 18 0 17 5 26 16 26 11 0 14 5 10 16 -3 9 -6 19 -6 24 0 19
-31 17 -56 -3 l-27 -21 6 37 6 36 -65 31 c-56 26 -64 33 -64 58 0 37 -8 44
-33 31 -18 -10 -19 -9 -14 11 14 54 -43 78 -104 45z m111 -106 c0 -12 -37 -11
-45 1 -3 6 -3 20 1 32 l7 22 18 -23 c11 -13 19 -27 19 -32z m130 -114 c0 -8
12 -23 26 -34 30 -24 26 -61 -8 -61 -31 0 -47 29 -48 84 0 42 2 47 15 36 8 -7
15 -18 15 -25z"/>
<path d="M1776 1226 c-25 -21 -27 -26 -16 -47 l13 -23 9 24 c5 14 16 28 24 33
14 8 20 37 7 37 -5 -1 -21 -11 -37 -24z"/>
<path d="M1109 1100 c30 -26 49 -26 26 0 -10 11 -25 20 -34 20 -12 -1 -10 -5
8 -20z"/>
<path d="M1213 1103 c26 -2 67 -2 90 0 23 2 2 3 -48 3 -49 0 -68 -1 -42 -3z"/>
<path d="M1326 1045 c4 -8 11 -15 16 -15 6 0 8 -6 5 -14 -8 -19 17 -51 32 -42
9 6 9 11 -1 24 -7 9 -8 13 -3 10 6 -4 17 -2 25 3 12 8 11 13 -10 29 -30 24
-72 27 -64 5z"/>
<path d="M1390 960 c-11 -21 -6 -24 31 -21 8 1 24 -8 34 -19 10 -11 13 -20 7
-20 -6 0 -9 -7 -6 -15 10 -26 32 -16 36 16 4 27 0 33 -37 55 -50 29 -52 29
-65 4z"/>
<path d="M1287 939 c-4 -16 -1 -20 16 -17 12 2 23 11 25 21 5 25 -34 22 -41
-4z"/>
<path d="M1328 900 c-7 -11 -19 -20 -27 -20 -8 0 -11 -7 -8 -20 3 -10 1 -20
-4 -22 -4 -2 -4 -10 1 -18 8 -12 12 -12 18 -2 5 7 16 10 25 6 16 -6 22 -23 18
-52 -2 -9 4 -12 18 -7 10 3 22 1 26 -5 12 -19 38 -11 32 10 -3 11 -1 20 4 20
5 0 9 14 9 30 0 30 -1 31 -37 24 -34 -6 -36 -6 -30 16 6 25 -7 60 -23 60 -6 0
-15 -9 -22 -20z"/>
<path d="M1760 691 c0 -23 20 -59 36 -65 31 -12 35 9 8 42 -27 32 -44 41 -44
23z"/>
<path d="M1280 681 c0 -6 9 -15 21 -21 18 -10 20 -9 17 7 -3 19 -38 32 -38 14z"/>
<path d="M2038 653 l5 -37 14 27 c15 29 10 47 -11 47 -8 0 -11 -12 -8 -37z"/>
<path d="M750 550 c-13 -8 -12 -11 5 -24 17 -12 22 -13 34 -1 25 25 -6 46 -39
25z"/>
</g>
</svg>
